<svg width="41" height="41" viewBox="0 0 41 41" fill="none" xmlns="http://www.w3.org/2000/svg">
<path fill-rule="evenodd" clip-rule="evenodd" d="M38.5429 34.1798C38.5429 34.1798 7.36406 34.1673 7.35797 34.1675C6.74437 34.1595 6.41299 34.2052 5.5963 34.5624L0.548091 36.7687C0.209739 36.9154 -0.000319602 37.2294 3.65018e-07 37.5882C0.000321064 37.9433 0.215825 38.2656 0.545688 38.4079C2.20133 39.1336 5.59606 40.6173 5.59606 40.6173C6.36038 40.9515 6.69168 40.9889 7.23472 40.9889L19.4558 41C19.7875 41 20.0564 40.7366 20.0564 40.4118C20.0564 40.0869 19.7875 39.8236 19.4558 39.8236C19.4558 39.8236 8.02611 39.8239 7.97662 39.8243V38.1781H34.515V39.8236H22.4381C22.1064 39.8236 21.8375 40.0869 21.8375 40.4118C21.8375 40.7366 22.1064 41 22.4381 41H38.543C39.8977 41 41 39.9224 41 38.5979V36.5819C40.9999 35.2574 39.8977 34.1798 38.5429 34.1798ZM3.48539 36.7733V38.4057L2.90677 38.1527L2.90586 38.1523C2.47698 37.9648 2.04812 37.7773 1.61865 37.5891L3.48539 36.7733ZM4.68652 36.2483V38.9311C5.12498 39.1227 6.59667 39.7546 6.77542 39.7949V35.385C6.59667 35.4252 4.68652 36.2483 4.68652 36.2483ZM7.97656 37.0017V35.3555C8.02605 35.3559 8.07699 35.3562 8.13104 35.3562H34.515V37.0017H7.97656ZM38.5429 39.8236C39.2354 39.8236 39.7987 39.2738 39.7987 38.5979V36.5818C39.7987 35.906 39.2353 35.3561 38.5429 35.3561H35.7163V39.8236H38.5429Z" fill="black"/>
<path fill-rule="evenodd" clip-rule="evenodd" d="M1.06259 31.2381L19.9413 31.2359C20.2828 31.2359 20.5596 30.9688 20.5596 30.6394C20.5595 30.31 20.2826 30.043 19.9412 30.0431L1.23662 30.0453V5.70836H3.70863V25.6452C3.70863 26.1865 4.16552 26.6268 4.72719 26.6268H30.3662C30.79 26.6268 31.1583 26.4061 31.3048 26.0647C31.4508 25.7241 31.3541 25.3438 31.0459 25.0472L10.9531 5.70836H33.6949V24.6188C33.6949 25.176 34.1653 25.6293 34.7435 25.6293H37.469C38.7342 25.6293 39.7635 26.6193 39.7635 27.8362C39.7635 29.053 38.7342 30.043 37.469 30.043H22.78C22.4384 30.043 22.1616 30.31 22.1616 30.6394C22.1616 30.9688 22.4384 31.2358 22.78 31.2358H37.4689C39.4159 31.2358 41 29.7107 41 27.8362V5.4772C41 3.60139 39.4159 2.07537 37.4689 2.07537H34.7434C34.1652 2.07537 33.6948 2.52767 33.6948 3.08365V4.51568H9.71374L5.34674 0.312474C5.03775 0.0150797 4.64178 -0.0769218 4.28736 0.0662093C3.93287 0.209499 3.70566 0.56526 3.70863 0.968412V4.5156H1.0625C0.476676 4.5156 0 4.97592 0 5.54177V30.212C0 30.7777 0.476676 31.2381 1.06259 31.2381ZM34.9316 3.26805H37.469C38.7342 3.26805 39.7635 4.259 39.7635 5.47712V25.254C39.146 24.7446 38.3441 24.4365 37.469 24.4365H34.9316V3.26805ZM29.6969 25.4341L4.94531 1.61116V25.4341H7.59786V24.5966C7.59786 24.2672 7.8747 24.0002 8.21618 24.0002C8.55765 24.0002 8.83449 24.2672 8.83449 24.5966V25.4341H11.4892V23.8084C11.4892 23.479 11.766 23.212 12.1075 23.212C12.449 23.212 12.7258 23.479 12.7258 23.8084V25.4341H15.3783V24.5966C15.3783 24.2672 15.6551 24.0002 15.9966 24.0002C16.3381 24.0002 16.6149 24.2672 16.6149 24.5966V25.4341H19.2698V23.8084C19.2698 23.479 19.5466 23.212 19.8881 23.212C20.2295 23.212 20.5064 23.479 20.5064 23.8084V25.4341H23.1588V24.5966C23.1588 24.2672 23.4356 24.0002 23.7772 24.0002C24.1187 24.0002 24.3955 24.2672 24.3955 24.5966V25.4341H29.6969Z" fill="black"/>
<path fill-rule="evenodd" clip-rule="evenodd" d="M16.6877 21.4762H10.4888C10.0471 21.4762 9.76179 21.1905 9.76172 20.7484V14.5507C9.76172 14.3168 9.76172 13.8816 10.1646 13.7151C10.561 13.5513 10.8466 13.8387 11.055 14.0487L17.1918 20.1822C17.4006 20.3908 17.6864 20.6765 17.5227 21.073C17.3562 21.4762 16.9213 21.4762 16.6877 21.4762ZM15.7809 20.3553L10.8809 15.4579V20.3553H15.7809Z" fill="black"/>
</svg>
