<svg width="18" height="18" viewBox="0 0 18 18" fill="none" xmlns="http://www.w3.org/2000/svg">
<path d="M9 5.40625C7 5.40625 5.40625 7.03125 5.40625 9C5.40625 11 7 12.5938 9 12.5938C10.9688 12.5938 12.5938 11 12.5938 9C12.5938 7.03125 10.9688 5.40625 9 5.40625ZM9 11.3438C7.71875 11.3438 6.65625 10.3125 6.65625 9C6.65625 7.71875 7.6875 6.6875 9 6.6875C10.2812 6.6875 11.3125 7.71875 11.3125 9C11.3125 10.3125 10.2812 11.3438 9 11.3438ZM13.5625 5.28125C13.5625 4.8125 13.1875 4.4375 12.7188 4.4375C12.25 4.4375 11.875 4.8125 11.875 5.28125C11.875 5.75 12.25 6.125 12.7188 6.125C13.1875 6.125 13.5625 5.75 13.5625 5.28125ZM15.9375 6.125C15.875 5 15.625 4 14.8125 3.1875C14 2.375 13 2.125 11.875 2.0625C10.7188 2 7.25 2 6.09375 2.0625C4.96875 2.125 4 2.375 3.15625 3.1875C2.34375 4 2.09375 5 2.03125 6.125C1.96875 7.28125 1.96875 10.75 2.03125 11.9062C2.09375 13.0312 2.34375 14 3.15625 14.8438C4 15.6562 4.96875 15.9062 6.09375 15.9688C7.25 16.0312 10.7188 16.0312 11.875 15.9688C13 15.9062 14 15.6562 14.8125 14.8438C15.625 14 15.875 13.0312 15.9375 11.9062C16 10.75 16 7.28125 15.9375 6.125ZM14.4375 13.125C14.2188 13.75 13.7188 14.2188 13.125 14.4688C12.1875 14.8438 10 14.75 9 14.75C7.96875 14.75 5.78125 14.8438 4.875 14.4688C4.25 14.2188 3.78125 13.75 3.53125 13.125C3.15625 12.2188 3.25 10.0312 3.25 9C3.25 8 3.15625 5.8125 3.53125 4.875C3.78125 4.28125 4.25 3.8125 4.875 3.5625C5.78125 3.1875 7.96875 3.28125 9 3.28125C10 3.28125 12.1875 3.1875 13.125 3.5625C13.7188 3.78125 14.1875 4.28125 14.4375 4.875C14.8125 5.8125 14.7188 8 14.7188 9C14.7188 10.0312 14.8125 12.2188 14.4375 13.125Z" fill="#707070"/>
</svg>
