<svg width="18" height="18" viewBox="0 0 18 18" fill="none" xmlns="http://www.w3.org/2000/svg">
<path d="M16.5 9C16.5 4.71875 13.0312 1.25 8.75 1.25C4.46875 1.25 1 4.71875 1 9C1 12.3125 3.03125 15.0938 5.90625 16.2188C5.84375 15.625 5.78125 14.6875 5.9375 14C6.09375 13.4062 6.84375 10.1562 6.84375 10.1562C6.84375 10.1562 6.625 9.6875 6.625 9C6.625 7.9375 7.25 7.125 8.03125 7.125C8.6875 7.125 9 7.625 9 8.21875C9 8.875 8.5625 9.875 8.34375 10.8125C8.1875 11.5625 8.75 12.1875 9.5 12.1875C10.875 12.1875 11.9375 10.75 11.9375 8.65625C11.9375 6.78125 10.5938 5.5 8.71875 5.5C6.5 5.5 5.21875 7.15625 5.21875 8.84375C5.21875 9.53125 5.46875 10.25 5.78125 10.625C5.84375 10.6875 5.84375 10.7812 5.84375 10.8438C5.78125 11.0938 5.625 11.625 5.625 11.7188C5.59375 11.875 5.5 11.9062 5.34375 11.8438C4.375 11.375 3.78125 9.96875 3.78125 8.8125C3.78125 6.375 5.5625 4.125 8.90625 4.125C11.5938 4.125 13.6875 6.0625 13.6875 8.625C13.6875 11.2812 12 13.4375 9.65625 13.4375C8.875 13.4375 8.125 13.0312 7.875 12.5312C7.875 12.5312 7.5 14.0312 7.40625 14.375C7.21875 15.0625 6.75 15.9062 6.4375 16.4062C7.15625 16.6562 7.9375 16.75 8.75 16.75C13.0312 16.75 16.5 13.2812 16.5 9Z" fill="#707070"/>
</svg>
