<svg width="18" height="18" viewBox="0 0 18 18" fill="none" xmlns="http://www.w3.org/2000/svg">
<path d="M13.875 4.0625C12.5938 2.75 10.8438 2 8.96875 2C5.15625 2 2.03125 5.125 2.03125 8.9375C2.03125 10.1875 2.375 11.375 2.96875 12.4062L2 16L5.65625 15.0625C6.6875 15.5938 7.8125 15.9062 8.96875 15.9062C12.8125 15.9062 16 12.7812 16 8.96875C16 7.09375 15.1875 5.375 13.875 4.0625ZM8.96875 14.7188C7.9375 14.7188 6.9375 14.4375 6.03125 13.9062L5.84375 13.7812L3.65625 14.375L4.25 12.25L4.09375 12.0312C3.53125 11.0938 3.21875 10.0312 3.21875 8.9375C3.21875 5.78125 5.8125 3.1875 9 3.1875C10.5312 3.1875 11.9688 3.78125 13.0625 4.875C14.1562 5.96875 14.8125 7.40625 14.8125 8.96875C14.8125 12.125 12.1562 14.7188 8.96875 14.7188ZM12.1562 10.4062C11.9688 10.3125 11.125 9.90625 10.9688 9.84375C10.8125 9.78125 10.6875 9.75 10.5625 9.9375C10.4688 10.0938 10.125 10.5 10.0312 10.625C9.90625 10.7188 9.8125 10.75 9.65625 10.6562C8.625 10.1562 7.96875 9.75 7.28125 8.59375C7.09375 8.28125 7.46875 8.3125 7.78125 7.65625C7.84375 7.53125 7.8125 7.4375 7.78125 7.34375C7.75 7.25 7.375 6.40625 7.25 6.0625C7.09375 5.71875 6.96875 5.75 6.84375 5.75C6.75 5.75 6.625 5.75 6.53125 5.75C6.40625 5.75 6.21875 5.78125 6.0625 5.96875C5.90625 6.15625 5.46875 6.5625 5.46875 7.40625C5.46875 8.28125 6.0625 9.09375 6.15625 9.21875C6.25 9.3125 7.375 11.0625 9.125 11.8125C10.2188 12.3125 10.6562 12.3438 11.2188 12.25C11.5312 12.2188 12.2188 11.8438 12.375 11.4375C12.5312 11.0312 12.5312 10.6875 12.4688 10.625C12.4375 10.5312 12.3125 10.5 12.1562 10.4062Z" fill="#707070"/>
</svg>
