<svg width="18" height="18" viewBox="0 0 18 18" fill="none" xmlns="http://www.w3.org/2000/svg">
<path d="M17.1562 4.90625C16.9688 4.15625 16.375 3.5625 15.6562 3.375C14.3125 3 9 3 9 3C9 3 3.65625 3 2.3125 3.375C1.59375 3.5625 1 4.15625 0.8125 4.90625C0.4375 6.21875 0.4375 9.03125 0.4375 9.03125C0.4375 9.03125 0.4375 11.8125 0.8125 13.1562C1 13.9062 1.59375 14.4688 2.3125 14.6562C3.65625 15 9 15 9 15C9 15 14.3125 15 15.6562 14.6562C16.375 14.4688 16.9688 13.9062 17.1562 13.1562C17.5312 11.8125 17.5312 9.03125 17.5312 9.03125C17.5312 9.03125 17.5312 6.21875 17.1562 4.90625ZM7.25 11.5625V6.5L11.6875 9.03125L7.25 11.5625Z" fill="#707070"/>
</svg>
